# xmcd CD database file
#
# Track frame offsets:
#	150
#	11535
#	22323
#	34194
#	46053
#	58034
#	67644
#	77554
#	87364
#	100262
#	111005
#	124118
#	136885
#	147483
#	157895
#	168998
#	180520
#	190973
#	201279
#	213967
#	226867
#	237972
#	247947
#	257685
#	267432
#	278085
#	293291
#
# Disc length: 4066 seconds
#
# Revision: 8
# Processed by: cddbd v1.5.2PL0 Copyright (c) Steve Scherf et al.
# Submitted via: CDex 1.51
#
DISCID=6c0fe01b
DTITLE=Patsy Cline - The Patsy Cline Collection, Disc 2  -  Moving Along
DYEAR=1991
DGENRE=Country
TTITLE0=Just Out Of Reach
TTITLE1=I Can See An Angel
TTITLE2=Let The Teardrops Fall
TTITLE3=Never No More
TTITLE4=If I Could Only Stay Asleep
TTITLE5=I'm Moving Along
TTITLE6=I'm Blue Again
TTITLE7=Love, Love, Love Me Honey Do
TTITLE8=Yes, I Understand
TTITLE9=Gotta Lot Of Rhythm In My Soul
TTITLE10=Life's Railway To Heaven
TTITLE11=Just A Closer Walk With Thee
TTITLE12=Lovesick Blues
TTITLE13=How Can I Face Tomorrow
TTITLE14=There He Goes
TTITLE15=Crazy Dreams
TTITLE16=When Your House Is Not A Home (Radio Transcription)
TTITLE17=Stupid Cupid (Radio Transcription)
TTITLE18=Loose Talk (Radio Transcription)
TTITLE19=I Fall To Pieces
TTITLE20=Shoes
TTITLE21=Lovin' In Vain
TTITLE22=Side By Side (Radio Transcription)
TTITLE23=True Love
TTITLE24=San Antonio Rose
TTITLE25=The Wayward Wind
TTITLE26=A Poor Man's Roses (Or A Rich Man's Gold)
EXTD=YEAR: 1991
EXTT0=
EXTT1=
EXTT2=
EXTT3=
EXTT4=
EXTT5=
EXTT6=
EXTT7=
EXTT8=
EXTT9=
EXTT10=
EXTT11=
EXTT12=
EXTT13=
EXTT14=
EXTT15=
EXTT16=
EXTT17=
EXTT18=
EXTT19=
EXTT20=
EXTT21=
EXTT22=
EXTT23=
EXTT24=
EXTT25=
EXTT26=
PLAYORDER=
